<mxfile host="app.diagrams.net" modified="2023-07-20T09:25:47.302Z" agent="Mozilla/5.0 (Windows NT 10.0; Win64; x64) AppleWebKit/537.36 (KHTML, like Gecko) Chrome/114.0.0.0 Safari/537.36 Edg/114.0.1823.79" version="21.5.0" etag="UyTEhsjkEXi7_sM37rx2" type="github">
  <diagram name="第 1 页" id="Wxe5WbAEjRkNYdjz-F_n">
    <mxGraphModel>
      <root>
        <mxCell id="0" />
        <mxCell id="1" parent="0" />
      </root>
    </mxGraphModel>
  </diagram>
</mxfile>
